<svg width="212" height="185" viewBox="0 0 212 185" fill="none" xmlns="http://www.w3.org/2000/svg">
<g id="Group 9">
<g id="OBJECTS">
<path id="Vector" d="M106 184.005C164.542 184.005 212 182.096 212 179.741C212 177.386 164.542 175.477 106 175.477C47.4578 175.477 0 177.386 0 179.741C0 182.096 47.4578 184.005 106 184.005Z" fill="#E2DDDA"/>
<path id="Vector_2" d="M94.7718 120.576C95.1143 120.575 95.4423 120.439 95.6845 120.197C95.9267 119.955 96.0634 119.628 96.0647 119.286V105.286C96.0675 103.298 96.8598 101.393 98.2679 99.9868C99.676 98.5811 101.585 97.7902 103.576 97.7874H131.204C131.381 97.7987 131.559 97.7736 131.726 97.7137C131.893 97.6537 132.046 97.5603 132.175 97.4391C132.304 97.3179 132.408 97.1715 132.478 97.009C132.549 96.8464 132.585 96.6712 132.585 96.4941C132.585 96.317 132.549 96.1417 132.478 95.9792C132.408 95.8167 132.304 95.6703 132.175 95.5491C132.046 95.4279 131.893 95.3344 131.726 95.2745C131.559 95.2146 131.381 95.1895 131.204 95.2007H103.576C100.898 95.2035 98.3297 96.267 96.4357 98.1578C94.5417 100.049 93.4764 102.612 93.4736 105.286V119.286C93.475 119.629 93.6124 119.957 93.8557 120.199C94.099 120.441 94.4284 120.576 94.7718 120.576Z" fill="#E5EDF0"/>
<path id="Vector_3" d="M119.903 122.703H156.022L157.964 110.073L158.173 108.693L160.79 91.7309L161.005 90.3513L161.706 85.7632L166.695 73.3889L167.25 72.0146L174.076 55.0522L174.636 53.6726L178.823 43.2788H142.705C141.187 42.9914 139.297 44.0574 138.203 45.97C136.748 48.5097 135.376 51.0772 134.089 53.6726C133.858 54.1324 133.628 54.5923 133.413 55.0522C130.725 60.5536 128.388 66.219 126.415 72.0146C126.253 72.4744 126.101 72.9291 125.949 73.3889C124.116 78.9426 122.644 84.6085 121.541 90.3513C121.454 90.8112 121.37 91.2711 121.29 91.7309C120.274 97.3342 119.66 103.003 119.453 108.693C119.453 109.153 119.421 109.613 119.416 110.073C119.32 114.289 119.482 118.507 119.903 122.703Z" fill="#684124"/>
<path id="Vector_4" d="M133.414 55.0521H174.076L174.636 53.6726H134.089C133.859 54.1324 133.628 54.5923 133.414 55.0521Z" fill="#4B2B14"/>
<path id="Vector_5" d="M125.959 73.3889H166.69L167.245 72.0146H126.415C126.263 72.4744 126.111 72.9291 125.959 73.3889Z" fill="#4B2B14"/>
<path id="Vector_6" d="M121.301 91.7309H160.785L161 90.3513H121.552C121.465 90.8112 121.381 91.2711 121.301 91.7309Z" fill="#4B2B14"/>
<path id="Vector_7" d="M119.427 110.073H157.969L158.178 108.693H119.442C119.448 109.153 119.432 109.613 119.427 110.073Z" fill="#4B2B14"/>
<path id="Vector_8" d="M156.022 122.703L163.434 119.286C161.172 96.9095 167.224 71.6854 180.184 49.0165C181.399 46.8949 181.163 44.512 179.661 43.6132L179.603 43.5766C178.033 42.6151 175.594 43.7021 174.301 45.9648C160.157 70.7291 153.551 98.2734 156.022 122.703Z" fill="#4B2B14"/>
<path id="Vector_9" d="M92.165 131.002H121.861C125.104 131.002 127.734 128.377 127.734 125.138C127.734 121.9 125.104 119.275 121.861 119.275H92.165C88.9213 119.275 86.2918 121.9 86.2918 125.138C86.2918 128.377 88.9213 131.002 92.165 131.002Z" fill="#7A4D2A"/>
<path id="Vector_10" d="M121.861 131.002H163.889C167.133 131.002 169.762 128.377 169.762 125.138C169.762 121.9 167.133 119.275 163.889 119.275H121.861C118.617 119.275 115.987 121.9 115.987 125.138C115.987 128.377 118.617 131.002 121.861 131.002Z" fill="#543016"/>
<path id="Vector_11" d="M153.133 178.746C155.151 177.83 156.042 175.453 155.124 173.438C154.205 171.423 151.825 170.533 149.807 171.45C147.788 172.367 146.897 174.744 147.815 176.759C148.734 178.773 151.115 179.663 153.133 178.746Z" fill="#292929"/>
<path id="Vector_12" d="M149.504 175.106C149.503 174.718 149.618 174.339 149.833 174.016C150.048 173.693 150.354 173.441 150.713 173.292C151.071 173.143 151.466 173.103 151.847 173.178C152.228 173.253 152.578 173.439 152.854 173.713C153.129 173.987 153.316 174.336 153.392 174.717C153.468 175.097 153.43 175.491 153.281 175.849C153.133 176.208 152.881 176.514 152.558 176.73C152.236 176.945 151.856 177.06 151.467 177.06C150.948 177.06 150.449 176.855 150.081 176.488C149.713 176.122 149.506 175.625 149.504 175.106Z" fill="#979598"/>
<path id="Vector_13" d="M131.992 176.028C132.5 173.873 131.162 171.715 129.003 171.208C126.845 170.701 124.683 172.037 124.175 174.192C123.668 176.347 125.006 178.505 127.164 179.012C129.322 179.519 131.484 178.183 131.992 176.028Z" fill="#292929"/>
<path id="Vector_14" d="M126.116 175.106C126.115 174.718 126.229 174.339 126.444 174.016C126.66 173.693 126.966 173.441 127.324 173.292C127.683 173.143 128.078 173.103 128.459 173.178C128.84 173.253 129.19 173.439 129.465 173.713C129.74 173.987 129.928 174.336 130.004 174.717C130.08 175.097 130.042 175.491 129.893 175.849C129.745 176.208 129.493 176.514 129.17 176.73C128.847 176.945 128.468 177.06 128.079 177.06C127.559 177.06 127.061 176.855 126.693 176.488C126.325 176.122 126.118 175.625 126.116 175.106Z" fill="#979598"/>
<path id="Vector_15" d="M107.806 177.636C109.205 175.919 108.944 173.394 107.224 171.998C105.503 170.602 102.974 170.862 101.576 172.58C100.177 174.297 100.438 176.822 102.158 178.218C103.879 179.615 106.408 179.354 107.806 177.636Z" fill="#292929"/>
<path id="Vector_16" d="M102.729 175.106C102.727 174.718 102.842 174.339 103.057 174.016C103.272 173.693 103.578 173.441 103.937 173.292C104.295 173.143 104.69 173.103 105.071 173.178C105.452 173.253 105.803 173.439 106.078 173.713C106.353 173.987 106.54 174.336 106.616 174.717C106.693 175.097 106.654 175.491 106.506 175.849C106.357 176.208 106.106 176.514 105.783 176.73C105.46 176.945 105.08 177.06 104.691 177.06C104.172 177.06 103.673 176.855 103.305 176.488C102.937 176.122 102.73 175.625 102.729 175.106Z" fill="#979598"/>
<path id="Vector_17" d="M147.086 134.456H109.078C108.624 134.456 108.175 134.367 107.756 134.193C107.337 134.02 106.956 133.766 106.635 133.446C106.314 133.125 106.06 132.745 105.886 132.327C105.713 131.908 105.623 131.46 105.623 131.007H150.541C150.541 131.922 150.177 132.799 149.529 133.446C148.881 134.092 148.002 134.456 147.086 134.456Z" fill="#707477"/>
<path id="Vector_18" d="M120.332 170.147H135.832V164.801H120.332V170.147Z" fill="#979598"/>
<path id="Vector_19" d="M123.997 164.801H132.157V139.802H123.997V164.801Z" fill="#E6E8E7"/>
<path id="Vector_20" d="M123.264 161.702H133.173V134.456H123.264V161.702Z" fill="#979598"/>
<path id="Vector_21" d="M99.3206 173.146H157.121C157.95 173.146 158.623 172.475 158.623 171.647C158.623 170.818 157.95 170.147 157.121 170.147H99.3206C98.4909 170.147 97.8183 170.818 97.8183 171.647C97.8183 172.475 98.4909 173.146 99.3206 173.146Z" fill="#707477"/>
<path id="Vector_22" d="M108.13 35.8009C106.615 37.1634 105.459 38.877 104.764 40.7906C104.068 42.7043 103.854 44.7593 104.142 46.7747L107.759 71.9832L94.5415 88.93L100.608 91.9556L115.338 71.816L108.13 35.8009Z" fill="#6B66AB"/>
<path id="Vector_23" d="M117.443 30.314C117.443 30.314 126.127 26.2223 138.533 28.7045L135.392 34.322L119.254 38.0845L117.443 30.314Z" fill="#6B66AB"/>
<path id="Vector_24" d="M116.396 32.5349C116.396 32.5349 124.379 27.1786 137.596 30.314L122.227 55.789L116.396 32.5349Z" fill="white"/>
<path id="Vector_25" d="M121.892 49.6488L117.443 30.314L108.13 35.8009L109.701 77.4754L106.403 97.8135C106.403 97.8135 107.549 105.704 119.882 98.9684L121.892 49.6488Z" fill="#7F7ACC"/>
<path id="Vector_26" d="M119.903 98.9475L121.892 49.6279L124.295 41.0056L138.533 28.6836L148.578 34.5154C149.778 35.2113 150.827 36.1377 151.666 37.2409C152.506 38.3441 153.118 39.6023 153.467 40.9429L160.617 85.6535L148.682 89.9176L151.562 102.564C151.562 102.564 141.595 108.699 138.192 109.221C134.79 109.744 119.903 98.9475 119.903 98.9475Z" fill="#7F7ACC"/>
<path id="Vector_27" d="M121.892 49.6488L119.903 98.9684" stroke="#CCC9FF" stroke-width="0.25" stroke-miterlimit="10"/>
<path id="Vector_28" d="M108.748 83.605C118.38 74.6314 126.878 64.5162 134.052 53.4845" stroke="#DFDEFF" stroke-width="0.25" stroke-miterlimit="10"/>
<path id="Vector_29" d="M115.825 86.359C120.751 80.6682 125.692 74.9462 129.728 68.5918" stroke="#DFDEFF" stroke-width="0.25" stroke-miterlimit="10"/>
<path id="Vector_30" d="M146.715 35.8009C146.715 35.8009 140.784 39.2864 141.129 43.8118C141.475 48.3372 147.589 78.301 147.589 78.301L129.44 85.7946L131.089 95.3262L148.981 89.9019" stroke="#CCC9FF" stroke-width="0.25" stroke-miterlimit="10"/>
<path id="Vector_31" d="M133.607 84.0597L136.072 93.8055" stroke="#CCC9FF" stroke-width="0.25" stroke-miterlimit="10"/>
<path id="Vector_32" d="M129.849 88.1461L122.122 89.7713C121.825 89.7842 121.54 89.893 121.309 90.0814C121.079 90.2699 120.916 90.5278 120.845 90.8164L119.735 95.4568C119.735 95.4568 121.641 96.9827 122.682 93.0164C122.682 93.0164 128.095 96.3033 130.608 92.4938L129.849 88.1461Z" fill="#EE8D6A"/>
<path id="Vector_33" d="M138.533 28.7045L142.454 30.8052L132.435 44.6845L124.295 41.0265L138.533 28.7045Z" fill="#8A85DE"/>
<path id="Vector_34" d="M124.295 41.0265L128.074 42.7249L121.892 49.6488L124.295 41.0265Z" fill="#6B66AB"/>
<path id="Vector_35" d="M121.892 49.6488L119.725 40.227L116.396 43.2474L121.892 49.6488Z" fill="#6B66AB"/>
<path id="Vector_36" d="M117.443 30.314L119.903 40.9847L115.087 44.0313L113.192 32.514L117.443 30.314Z" fill="#8A85DE"/>
<path id="Vector_37" d="M133.743 57.3305L141.124 56.7818L141.375 62.7495C141.375 62.7495 138.999 65.8849 138.083 66.0573C136.449 66.3866 133.843 63.178 133.843 63.178L133.743 57.3305Z" fill="#8A85DE"/>
<path id="Vector_38" d="M133.738 58.8878L141.213 58.4018" stroke="#CCC9FF" stroke-width="0.25" stroke-miterlimit="10"/>
<path id="Vector_39" d="M152.907 75.6464L147.589 78.2906L151.86 79.9575" stroke="#CCC9FF" stroke-width="0.25" stroke-miterlimit="10"/>
<path id="Vector_40" d="M147.06 102.538L143.689 111.719C142.763 114.23 141.088 116.398 138.889 117.927C136.69 119.457 134.073 120.276 131.393 120.273L89.9087 118.904L58.0669 152.646L51.5132 147.692L81.1199 102.193C82.6253 99.8318 84.7816 97.955 87.3296 96.7879C89.8776 95.6209 92.709 95.2131 95.4836 95.6136L147.06 102.538Z" fill="#ABC5D2"/>
<path id="Vector_41" d="M55.0205 149.819L93.2014 105.433" stroke="#D1F0FF" stroke-width="0.25" stroke-miterlimit="10"/>
<path id="Vector_42" d="M103.44 103.776L124.274 110.386C126.875 111.211 129.697 110.978 132.127 109.737C134.557 108.496 136.398 106.349 137.251 103.76L138.078 101.242" stroke="#D1F0FF" stroke-width="0.25" stroke-miterlimit="10"/>
<path id="Vector_43" d="M31.0254 147.499L50.1054 162.324L51.1994 161.112L58.889 152.631L51.4768 146.684C51.4768 146.684 46.5197 152.098 40.8978 146.95C36.7101 143.12 33.6636 144.729 32.1351 146.166C31.711 146.563 31.3382 147.01 31.0254 147.499Z" fill="#3B1C05"/>
<path id="Vector_44" d="M57.0828 151.178L48.5767 159.764" stroke="#94460D" stroke-width="0.25" stroke-miterlimit="10"/>
<path id="Vector_45" d="M51.8538 156.456C51.8538 156.456 47.7028 151.272 43.9653 156.325" stroke="#94460D" stroke-width="0.25" stroke-miterlimit="10"/>
<path id="Vector_46" d="M31.0254 147.499L50.1054 162.324L51.1994 161.112L32.1404 146.166C31.7144 146.562 31.3398 147.01 31.0254 147.499Z" fill="white"/>
<path id="Vector_47" d="M120.966 96.9095L81.3191 91.9608L77.21 67.0711C77.0111 65.8535 77.7963 64.9809 78.9688 65.1376L114.375 69.5428C114.989 69.6598 115.555 69.9569 115.998 70.3963C116.442 70.8357 116.745 71.3974 116.867 72.0093L120.966 96.9095Z" fill="#3F404A"/>
<path id="Vector_48" d="M119.903 98.9475L81.3191 91.9399L77.21 67.0711C77.0111 65.8535 77.7963 64.9809 78.9688 65.1376L112.868 69.3704C113.483 69.4829 114.05 69.7787 114.494 70.219C114.938 70.6592 115.238 71.2233 115.354 71.8369L119.903 98.9475Z" fill="#4E505D"/>
<path id="Vector_49" d="M98.834 81.5879C98.7674 82.1427 98.5374 82.6654 98.173 83.0895C97.8086 83.5137 97.3263 83.8203 96.7872 83.9705C96.248 84.1207 95.6764 84.1077 95.1446 83.9332C94.6129 83.7587 94.145 83.4305 93.8003 82.9903C93.4556 82.5501 93.2496 82.0176 93.2084 81.4603C93.1671 80.9031 93.2926 80.3461 93.5688 79.8601C93.8449 79.3741 94.2594 78.9809 94.7597 78.7303C95.26 78.4797 95.8236 78.383 96.379 78.4526C97.1201 78.5453 97.7944 78.9272 98.2544 79.5147C98.7144 80.1022 98.9228 80.8475 98.834 81.5879Z" fill="#5E6170"/>
<path id="Vector_50" d="M94.2537 95.7651L138.078 101.242C138.365 101.277 138.654 101.197 138.883 101.02C139.112 100.843 139.261 100.582 139.297 100.296C139.333 100.009 139.253 99.7198 139.075 99.4916C138.898 99.2633 138.637 99.1147 138.35 99.0782L94.5259 93.6017C94.2386 93.5662 93.949 93.6458 93.7204 93.8231C93.4918 94.0004 93.3429 94.2609 93.3063 94.5475C93.2879 94.6896 93.298 94.834 93.3357 94.9722C93.3735 95.1105 93.4383 95.2399 93.5263 95.353C93.6144 95.4662 93.724 95.5609 93.8488 95.6316C93.9736 95.7023 94.1113 95.7477 94.2537 95.7651Z" fill="#3F404A"/>
<path id="Vector_51" d="M119.526 96.7266L81.314 91.9608L81.4134 92.8074C81.4547 93.2021 81.628 93.5715 81.9053 93.8559C82.1826 94.1403 82.5478 94.3232 82.9419 94.3751L119.898 98.9893L119.526 96.7266Z" fill="#4E505D"/>
<path id="Vector_52" d="M134.204 100.108L136.099 100.348C136.151 100.355 136.204 100.351 136.255 100.337C136.306 100.322 136.353 100.298 136.395 100.266C136.436 100.233 136.471 100.193 136.496 100.147C136.522 100.101 136.538 100.05 136.544 99.9979C136.55 99.9461 136.547 99.8934 136.533 99.843C136.519 99.7927 136.495 99.7455 136.463 99.7042C136.431 99.663 136.391 99.6284 136.346 99.6026C136.3 99.5768 136.25 99.5602 136.198 99.5537L134.298 99.3185C134.194 99.3066 134.088 99.3361 134.005 99.4005C133.922 99.465 133.868 99.5593 133.853 99.6634C133.847 99.7156 133.851 99.7686 133.865 99.8193C133.879 99.87 133.903 99.9174 133.935 99.9588C133.968 100 134.009 100.035 134.055 100.06C134.101 100.086 134.152 100.102 134.204 100.108Z" fill="#34353D"/>
<path id="Vector_53" d="M132.44 99.4701C132.426 99.5747 132.455 99.6803 132.52 99.7636C132.585 99.8469 132.68 99.9011 132.785 99.9143C132.89 99.9274 132.996 99.8985 133.079 99.8338C133.163 99.7691 133.217 99.674 133.23 99.5694C133.243 99.4647 133.214 99.3591 133.149 99.2758C133.085 99.1925 132.989 99.1383 132.885 99.1252C132.78 99.112 132.674 99.141 132.591 99.2056C132.507 99.2703 132.453 99.3654 132.44 99.4701Z" fill="#34353D"/>
<path id="Vector_54" d="M131.094 99.3185C131.085 99.3964 131.098 99.4755 131.134 99.5457C131.169 99.6158 131.224 99.674 131.292 99.7128C131.361 99.7516 131.439 99.7694 131.518 99.7638C131.596 99.7582 131.671 99.7295 131.733 99.6813C131.795 99.6332 131.842 99.5677 131.867 99.4933C131.891 99.4188 131.894 99.3386 131.873 99.2629C131.852 99.1872 131.809 99.1193 131.75 99.0678C131.691 99.0163 131.617 98.9835 131.539 98.9736C131.487 98.9663 131.434 98.9695 131.384 98.983C131.333 98.9965 131.285 99.02 131.244 99.0522C131.202 99.0843 131.168 99.1245 131.142 99.1702C131.116 99.216 131.1 99.2664 131.094 99.3185Z" fill="#34353D"/>
<path id="Vector_55" d="M129.639 8.06842L131.513 31.0612C131.578 31.8302 131.487 32.6044 131.246 33.3376C131.005 34.0707 130.618 34.7479 130.109 35.3287C129.6 35.9095 128.979 36.382 128.284 36.7181C127.588 37.0542 126.831 37.247 126.059 37.285C125.302 37.3251 124.545 37.2157 123.831 36.963C123.116 36.7103 122.459 36.3194 121.896 35.8125C121.334 35.3057 120.877 34.6929 120.552 34.0094C120.227 33.3259 120.04 32.5851 120.003 31.8294L119.83 28.4641C118.684 28.5226 117.538 28.3491 116.461 27.9539C115.384 27.5587 114.398 26.95 113.562 26.1645C112.727 25.379 112.06 24.4329 111.6 23.3831C111.141 22.3333 110.899 21.2016 110.889 20.056L110.8 9.02994L129.639 8.06842Z" fill="#EE8D6A"/>
<path id="Vector_56" d="M121.337 15.1857C122.316 15.0551 122.609 17.276 121.631 17.3857C120.652 17.4955 120.353 15.3373 121.337 15.1857Z" fill="#47241E"/>
<path id="Vector_57" d="M115.333 15.5986C116.317 15.4679 116.61 17.6888 115.626 17.8038C114.642 17.9187 114.375 15.7292 115.333 15.5986Z" fill="#47241E"/>
<path id="Vector_58" d="M120.463 13.247C120.165 13.3045 120.092 13.6181 120.092 13.8532C120.081 13.9459 120.101 14.0395 120.149 14.1197C120.259 14.2504 120.5 14.2556 120.704 14.2504C121.824 14.2085 124.038 14.381 124.174 14.0884C124.174 13.2157 120.536 13.247 120.463 13.247Z" fill="#59393B"/>
<path id="Vector_59" d="M115.946 13.5292C116.239 13.571 116.291 13.8793 116.281 14.1145C116.286 14.2114 116.259 14.3073 116.202 14.3862C116.043 14.5091 115.842 14.5653 115.642 14.543C114.522 14.543 112.292 14.867 112.177 14.5796C112.234 13.686 115.883 13.5188 115.946 13.5292Z" fill="#59393B"/>
<path id="Vector_60" d="M118.694 20.38C118.248 20.448 117.794 20.448 117.348 20.38C117.817 19.2036 118.049 17.9462 118.029 16.6803C118.029 16.611 118.001 16.5445 117.952 16.4955C117.903 16.4465 117.837 16.419 117.767 16.419C117.698 16.419 117.631 16.4465 117.582 16.4955C117.533 16.5445 117.505 16.611 117.505 16.6803C117.534 17.9717 117.281 19.2539 116.762 20.4375C116.744 20.4727 116.735 20.5114 116.734 20.5507C116.734 20.59 116.742 20.629 116.759 20.6646C116.775 20.7003 116.8 20.7318 116.83 20.7567C116.861 20.7816 116.897 20.7993 116.935 20.8085C117.519 20.9399 118.122 20.9647 118.715 20.8817C119.05 20.8503 119.029 20.333 118.694 20.38Z" fill="#D48F5F"/>
<path id="Vector_61" d="M110.8 14.7572L110.994 21.2945C113.3 20.3204 115.748 19.7206 118.244 19.5178C121.908 19.3454 125.609 22.6532 125.609 22.6532C125.609 22.6532 128.436 20.2076 127.614 13.7696H130.111C130.111 13.7696 133.634 28.1401 122.955 28.6313C120.673 28.7358 113.967 28.7985 112.161 28.0774C108.408 26.5776 109.345 13.1634 109.345 13.1634L110.8 14.7572Z" fill="#744A4C"/>
<path id="Vector_62" d="M135.837 14.1458C136.884 22.9719 130.953 24.2209 130.953 24.2209L130.11 15.1074C120.552 15.3843 117.27 8.72162 117.27 8.72162C114.585 14.2347 110.8 14.7729 110.8 14.7729C106.309 14.7729 105.675 8.46557 106.419 4.05513C107.162 -0.355308 115.647 0.444213 121.426 2.27319C122.169 1.80288 123.75 0.0522883 128.535 0.0261601C133.052 -0.0260963 135.575 11.6793 135.837 14.1458Z" fill="#744A4C"/>
<path id="Vector_63" d="M130.11 15.0917C130.11 15.0917 132.984 13.9995 133.549 15.7658C134.115 17.5321 131.764 18.7862 130.508 18.7549L130.11 15.0917Z" fill="#EE8D6A"/>
<path id="Vector_64" d="M120.992 119.934L98.2423 98.9893C95.1579 99.918 92.5192 101.939 90.8218 104.673C89.1245 107.406 88.4853 110.664 89.0243 113.835L99.2422 166.964L107.617 165.397L102.111 119.328L120.992 119.934Z" fill="#92A9B3"/>
<path id="Vector_65" d="M106.424 106.519L100.75 108.61C99.0039 109.251 97.5359 110.479 96.5979 112.082C95.6599 113.686 95.3105 115.566 95.6096 117.399L103.566 166.165" stroke="#ABC5D2" stroke-width="0.25" stroke-miterlimit="10"/>
<path id="Vector_66" d="M85.873 182.385L109.596 177.735L109.397 176.115L108.031 164.754L98.6715 166.437C98.6715 166.437 99.5143 173.721 91.9398 174.583C86.2917 175.226 85.5118 178.581 85.5955 180.671C85.6156 181.252 85.7088 181.828 85.873 182.385Z" fill="#3B1C05"/>
<path id="Vector_67" d="M105.744 165.162L106.66 177.207" stroke="#94460D" stroke-width="0.25" stroke-miterlimit="10"/>
<path id="Vector_68" d="M106.309 172.566C106.309 172.566 99.6661 172.295 101.032 178.43" stroke="#94460D" stroke-width="0.25" stroke-miterlimit="10"/>
<path id="Vector_69" d="M85.8729 182.385L109.596 177.734L109.397 176.115L85.585 180.671C85.6084 181.252 85.7052 181.828 85.8729 182.385Z" fill="white"/>
<path id="Vector_70" d="M124.562 120.576C124.905 120.576 125.235 120.441 125.478 120.199C125.721 119.957 125.859 119.629 125.86 119.286V105.286C125.862 103.298 126.653 101.391 128.062 99.9853C129.47 98.5793 131.38 97.7888 133.372 97.7874H161C161.329 97.7665 161.638 97.6212 161.864 97.3809C162.09 97.1407 162.216 96.8236 162.216 96.4941C162.216 96.1646 162.09 95.8475 161.864 95.6073C161.638 95.367 161.329 95.2217 161 95.2007H133.372C130.693 95.2035 128.125 96.267 126.231 98.1578C124.337 100.049 123.272 102.612 123.269 105.286V119.286C123.269 119.628 123.405 119.956 123.648 120.198C123.89 120.44 124.219 120.576 124.562 120.576Z" fill="#E5EDF0"/>
</g>
<g id="message">
<path id="Vector_71" d="M136.544 73.321H104.984C103.796 73.321 102.833 74.2825 102.833 75.4687V95.4568C102.833 96.6429 103.796 97.6045 104.984 97.6045H136.544C137.732 97.6045 138.695 96.6429 138.695 95.4568V75.4687C138.695 74.2825 137.732 73.321 136.544 73.321Z" fill="#FFFAD2" stroke="#47241E" stroke-width="0.25" stroke-miterlimit="10"/>
<path id="Vector_72" d="M102.859 76.0331C105.32 77.7941 110.502 81.5096 117.427 86.2597C121.332 88.9352 124.159 87.796 126.525 85.9618C131.236 82.3039 138.721 76.0331 138.721 76.0331C138.721 76.0331 138.721 73.2165 136.172 73.321C136.172 73.321 105.707 72.7984 104.367 73.4203C103.876 73.6469 103.467 74.0198 103.197 74.4877C102.928 74.9556 102.809 75.4954 102.859 76.0331Z" fill="#FFFBDE" stroke="#47241E" stroke-width="0.25" stroke-miterlimit="10"/>
</g>
</g>
</svg>
